1.8Hz3min_grf.mot
version=1
nRows=10
nColumns 19
inDegrees=yes
endheader
time	1_ground_force_vx	1_ground_force_vy	1_ground_force_vz	1_ground_force_px	1_ground_force_py	1_ground_force_pz	1_ground_torque_x	1_ground_torque_y	1_ground_torque_z	2_ground_force_vx	2_ground_force_vy	2_ground_force_vz	2_ground_force_px	2_ground_force_py	2_ground_force_pz	2_ground_torque_x	2_ground_torque_y	2_ground_torque_z
            3.751500	            0.323681	            0.355678	            1.147147	           -0.233013	            0.005581	           -0.255695	           -0.199797	           -0.100560	           -0.211842	           -0.043917	           -0.917731	           -0.894899	           -0.232311	            0.006130	           -0.833667	           -0.169023	           -0.037682	           -0.207415
            3.752000	            0.140423	            0.355446	            1.193458	           -0.233013	            0.005581	           -0.255695	           -0.220741	           -0.044864	           -0.294563	            0.142632	           -0.731399	           -1.316675	           -0.232311	            0.006130	           -0.833667	           -0.319399	           -0.009933	           -0.188400
            3.752500	            0.140294	           -0.184958	            1.099428	           -0.233013	            0.005581	           -0.255695	           -0.197611	           -0.081998	           -0.257164	            0.235024	           -0.362932	           -1.268473	           -0.232311	            0.006130	           -0.833667	           -0.281693	           -0.038425	           -0.113116
            3.753000	            0.094385	            0.175565	            1.101087	           -0.233013	            0.005581	           -0.255695	           -0.160170	           -0.045280	           -0.202673	            0.281894	           -0.362930	           -1.221564	           -0.232311	            0.006130	           -0.833667	           -0.187588	           -0.085416	           -0.094475
            3.753500	            0.185973	            0.716380	            1.103179	           -0.233013	            0.005581	           -0.255695	           -0.141972	           -0.026344	           -0.292737	            0.563014	           -0.362082	           -1.174756	           -0.232311	            0.006130	           -0.833667	           -0.206067	           -0.161375	           -0.019336
            3.754000	            0.186299	            0.175189	            1.192572	           -0.233013	            0.005581	           -0.255695	           -0.182893	           -0.026672	           -0.217425	            0.518302	           -0.915868	           -0.848210	           -0.232311	            0.006130	           -0.833667	           -0.187179	           -0.189665	           -0.019445
            3.754500	            0.232256	            0.175002	            1.238314	           -0.233013	            0.005581	           -0.255695	           -0.184752	           -0.017567	           -0.177830	            0.423252	           -0.547743	           -0.893784	           -0.232311	            0.006130	           -0.833667	           -0.225040	           -0.114045	           -0.056859
            3.755000	            0.231036	           -0.003101	            0.733126	           -0.233013	            0.005581	           -0.255695	           -0.050630	           -0.045047	           -0.234669	            0.051735	           -1.469503	           -0.990767	           -0.232311	            0.006130	           -0.833667	           -0.112457	           -0.066710	            0.037512
            3.755500	            0.324104	            0.535157	            1.331344	           -0.233013	            0.005581	           -0.255695	           -0.170337	           -0.063333	           -0.268156	            0.520275	           -1.468146	           -0.897110	           -0.232311	            0.006130	           -0.833667	           -0.187802	           -0.019449	           -0.037688
            3.756000	            0.048590	            0.535891	            1.148603	           -0.233013	            0.005581	           -0.255695	           -0.181187	           -0.008249	           -0.223227	           -0.041259	           -1.654324	           -0.897528	           -0.232311	            0.006130	           -0.833667	           -0.187545	           -0.094936	           -0.075658
